# xmcd
#
# Track frame offsets:
#	150
#	18965
#	35112
#	53621
#	70371
#	87223
#	99512
#	116947
#	137451
#	154166
#
# Disc length: 2305 seconds
#
# Revision: 0
# Processed by: cddbd v1.5.2PL0 Copyright (c) Steve Scherf et al.
# Submitted via: EasyCDDAExtractor 4.6.0.1
#
DISCID=8108ff0a
DTITLE=Rodney Crowell - Let The Picture Paint Itself
DYEAR=1994
DGENRE=Country
TTITLE0=Let The Picture Paint Itself
TTITLE1=Give My Heart A Rest
TTITLE2=Stuff That Works
TTITLE3=Big Heart
TTITLE4=Loving You Makes Me Strong
TTITLE5=The Best Years Of Our Lives
TTITLE6=I Don't Fall In Love So Easy
TTITLE7=That Ol' Door
TTITLE8=The Rose Of Memphis
TTITLE9=Once In A While
EXTD=
EXTT0=
EXTT1=
EXTT2=
EXTT3=
EXTT4=
EXTT5=
EXTT6=
EXTT7=
EXTT8=
EXTT9=
PLAYORDER=
